# xmcd
#
# Track frame offsets: 
#        150
#        13114
#        45663
#        75599
#        95583
#        114326
#        133772
#        155679
#        169818
#        186008
#        207958
#        226607
#        242791
#        262862
#        280776
#        308729
#        326392
#
# Disc length: 4771 seconds
#
# Revision: 2
# Processed by: cddbd v1.5.2PL0 Copyright (c) Steve Scherf et al.
# Submitted via: ExactAudioCopy v1.3
#
DISCID=d812a111
DTITLE=Various Artist - Akella Presents - vol.75 - Blues-Rock  CD2
DYEAR=2016
DGENRE=Blues
TTITLE0=Ryan McGarvey - Wish I Was Your Man
TTITLE1=Too Slim and the Taildraggers - Twisted Rails
TTITLE2=Stevie Nimmo - Gambler's Roll
TTITLE3=Pontus Snibb 3 - Hounds Of Hell
TTITLE4=100 Watt Vipers - When The Hammer Comes Down
TTITLE5=The Naughty Blokes - Fight, Steal and Beg
TTITLE6=Supersonic Blues Machine - That's My Way (feat. Chris Duarte)
TTITLE7=The Maynard Brothers Band - She Sold My Monkey
TTITLE8=Phil Rudd - Forty Days
TTITLE9=Mother Road - Drive Me Crazy
TTITLE10=Leslie West - Left By The Roadside To Die
TTITLE11=Rick Derringer - Still Alive And Well
TTITLE12=Sean Michel - Hosea Blues
TTITLE13=Rob Tognoni - The Hearder Will Fall
TTITLE14=Layla Zoe - Backstage Queen
TTITLE15=Monster Truck - Call It a Spade
TTITLE16=Frank Marino - The Wall Came Down
EXTD=
EXTT0=
EXTT1=
EXTT2=
EXTT3=
EXTT4=
EXTT5=
EXTT6=
EXTT7=
EXTT8=
EXTT9=
EXTT10=
EXTT11=
EXTT12=
EXTT13=
EXTT14=
EXTT15=
EXTT16=
PLAYORDER=
